<svg width="352" height="270" viewBox="0 0 352 270" fill="none" xmlns="http://www.w3.org/2000/svg">
<path d="M108.451 134.981C113.635 171.29 126.407 217.835 138.436 228.01C148.152 236.229 201.226 253.717 204.22 254.297C211.635 255.682 230.843 204.096 223.266 201.336C213.733 197.812 167.432 192.455 165.018 189.521C162.604 186.588 147.551 162.124 130.654 134.024C118.993 114.601 105.223 112.442 108.451 134.981Z" fill="#AD6359"/>
<path d="M198.455 250.886C199.311 251.416 211.42 258.841 219.049 261.764C224.742 263.943 241.303 269.789 244.328 263.801C246.365 259.727 237.066 255.113 230.538 251.721C227.095 249.939 223.021 245.845 224.264 243.645C226.433 239.795 235.274 244.582 241.008 248.595C252.099 256.355 266.612 269.861 274.231 264.544C277.113 262.507 274.322 258.189 270.086 253.819C277.123 259.095 284.711 263.577 288.001 261.468C289.885 260.277 290.119 258.413 289.315 256.233C291.545 257.17 293.582 257.201 295.12 255.826C297.748 253.504 296.882 249.715 294.56 245.641C295.017 245.629 295.464 245.509 295.866 245.291C296.268 245.074 296.612 244.764 296.872 244.388C302.636 237.024 278.946 212.509 270.279 209.668C244.817 201.296 216.91 201.225 216.91 201.225C206.002 208.476 198.435 250.876 198.455 250.886Z" fill="#AD6359"/>
<path d="M238.735 230.15C244.849 231.643 250.574 234.42 255.53 238.298C261.763 243.207 265.715 248.666 270.808 254.268C270.94 254.411 270.716 254.624 270.584 254.482C268.149 251.813 257.995 241.73 255.306 239.408C250.529 235.126 244.837 231.99 238.664 230.242C238.634 230.242 238.664 230.14 238.735 230.15Z" fill="#263238"/>
<path d="M244.551 219.517C251.233 221.961 258.087 224.446 264.157 228.214C270.808 232.339 275.758 238.562 280.636 244.571C283.57 248.177 286.418 251.847 289.182 255.581C289.294 255.734 289.08 255.948 288.958 255.785C284.014 249.593 278.888 243.553 273.578 237.666C268.691 232.173 262.765 227.701 256.142 224.507C252.353 222.684 248.432 221.166 244.521 219.639C244.513 219.637 244.505 219.633 244.499 219.628C244.492 219.623 244.486 219.617 244.482 219.61C244.478 219.603 244.475 219.595 244.474 219.587C244.473 219.579 244.473 219.57 244.475 219.562C244.477 219.554 244.481 219.547 244.486 219.54C244.49 219.533 244.497 219.528 244.504 219.524C244.511 219.519 244.519 219.517 244.527 219.515C244.535 219.514 244.543 219.515 244.551 219.517Z" fill="#263238"/>
<path d="M252.629 210.483C259.157 212.408 264.851 214.058 270.442 218.111C277.836 223.479 284.701 232.054 287.094 235.09C289.742 238.451 292.278 241.893 294.764 245.366C294.865 245.509 294.621 245.692 294.519 245.549C288.803 237.898 282.598 230.624 275.942 223.774C272.822 220.463 269.208 217.656 265.227 215.453C261.172 213.455 256.954 211.806 252.618 210.524C252.618 210.524 252.598 210.473 252.629 210.483Z" fill="#263238"/>
<path d="M118.921 196.549L159.162 174.01C159.162 174.01 143.497 146.174 127.425 125.193C111.354 104.213 104.947 116.292 107.259 139.035C109.571 161.778 118.921 196.549 118.921 196.549Z" fill="#FFC727"/>
<path d="M153.03 168.379C141.509 174.093 130.29 180.399 119.42 187.272C119.257 187.374 119.42 187.638 119.593 187.557C131.139 181.856 142.381 175.56 153.274 168.694C153.397 168.582 153.213 168.287 153.03 168.379Z" fill="#263238"/>
<path opacity="0.1" d="M152.052 177.994L118.92 196.55C118.92 196.55 109.56 161.789 107.259 139.036C105.792 124.645 107.829 114.532 113.594 114.358L152.052 177.994Z" fill="black"/>
<path d="M5.71642 259.594H157.981C159.926 258.168 142.286 154.995 119.869 119.348C115.673 112.687 95.5676 102.502 79.8319 114.571C32.3397 151.003 3.93406 257.313 5.71642 259.594Z" fill="#FFC727"/>
<path d="M184.696 182.729C189.721 180.105 194.991 177.979 200.431 176.384C207.714 174.5 223.694 171.607 226.556 170.415L231.394 170.242L200.116 252.74L157.258 261.54L85.9634 244.531L111.426 166.026L116.335 165.781C116.335 165.781 125.389 168.236 132.855 169.662C140.32 171.088 166.21 172.208 184.696 182.729Z" fill="white"/>
<path d="M150.902 263.648L178.88 184.135L108.339 165.222L81.8379 246.395L150.902 263.648Z" fill="#455A64"/>
<path d="M150.901 263.648L161.178 264.219L189.268 184.695L178.879 184.135L150.901 263.648Z" fill="#37474F"/>
<path d="M161.178 264.218L189.268 184.694L233.471 169.519L201.256 253.544L161.178 264.218Z" fill="#455A64"/>
<path d="M75.4824 118.838C39.3056 159.873 -6.59772 236.3 1.33631 251.425C11.399 270.603 80.8905 267.059 97.0743 263.28C103.99 261.671 80.0757 201.723 72.6306 203.291C66.153 204.656 60.5615 206.021 60.3374 205.124C60.1134 204.228 79.4443 175.66 91.218 134.513C99.315 106.463 83.1618 110.181 75.4824 118.838Z" fill="#AD6359"/>
<path d="M40.1304 231.84C40.1304 231.84 42.8294 229.07 54.6846 212.173C62.8325 200.481 90.3317 177.249 129.32 186.711C144.251 190.347 148.233 202.416 132.039 201.397C120.632 200.674 112.8 199.197 109.011 200.012C109.011 200.012 121.986 211.735 120.795 221.797C119.756 230.599 118.091 239.316 115.814 247.881C114.149 247.817 112.489 247.65 110.844 247.382C110.019 251.308 108.101 254.921 105.311 257.804C102.522 260.687 98.9744 262.723 95.0779 263.678L40.1304 231.84Z" fill="#AD6359"/>
<path d="M64.2788 202.263C71.5508 200.471 87.0115 196.937 100.669 198.444C115.835 200.125 144.597 207.437 143.253 218.62C142.234 226.768 131.031 224.996 131.031 224.996C131.031 224.996 142.285 230.527 139.769 237.737C137.478 244.307 128.871 242.372 128.871 242.372C128.871 242.372 135.125 246.904 131.693 252.811C127.619 259.941 115.152 249.257 104.754 252.811C102.431 253.646 64.2788 202.263 64.2788 202.263Z" fill="#AD6359"/>
<path d="M96.229 214.18C103.358 213.62 119.817 216.482 130.919 224.701C131.173 224.884 131.163 225.18 130.919 225.058C119.853 220.09 108.225 216.486 96.2901 214.323C96.1373 214.312 96.1577 214.19 96.229 214.18Z" fill="#263238"/>
<path d="M94.9857 229.538C101.168 229.681 118.024 233.398 128.983 242.116C129.227 242.31 129.197 242.595 128.983 242.463C118.177 236.932 106.778 232.644 95.006 229.681C94.9871 229.683 94.9679 229.678 94.9526 229.667C94.9374 229.656 94.9273 229.638 94.9246 229.62C94.9219 229.601 94.9268 229.581 94.9382 229.566C94.9497 229.551 94.9668 229.541 94.9857 229.538Z" fill="#263238"/>
<path d="M29.3041 223.967C33.6632 218.325 46.8527 208.048 60.3986 205.349C60.7041 205.288 60.918 205.492 60.6532 205.604C49.5241 210.473 39.028 216.677 29.3958 224.079C29.3346 224.13 29.2532 224.028 29.3041 223.967Z" fill="#263238"/>
<path d="M32.7769 169.449L75.8793 185.856C75.8793 185.856 87.1846 155.974 92.9696 130.196C98.7546 104.418 85.3818 107.239 69.4017 123.596C53.4216 139.953 32.7769 169.449 32.7769 169.449Z" fill="#FFC727"/>
<path d="M89.2315 152.479C89.2369 152.467 89.2399 152.455 89.2405 152.443C89.2411 152.43 89.2392 152.418 89.235 152.406C89.2307 152.394 89.2242 152.383 89.2157 152.374C89.2073 152.364 89.1971 152.357 89.1857 152.352C89.1743 152.346 89.162 152.343 89.1495 152.343C89.1369 152.342 89.1244 152.344 89.1125 152.348C89.1007 152.352 89.0898 152.359 89.0806 152.367C89.0713 152.376 89.0637 152.386 89.0584 152.397L86.8279 156.604C87.6019 153.752 88.3217 150.88 88.9871 147.987C88.9871 147.896 88.8547 147.835 88.8241 147.926C86.6378 154.159 84.4955 160.399 82.3974 166.646C80.3605 172.91 77.9365 179.082 75.9199 185.366C74.6773 185.121 74.0051 184.918 73.0783 184.765C72.8644 184.765 72.732 184.969 72.9255 185.071C74.0417 185.672 75.2338 186.121 76.4698 186.405C79.1994 180.396 81.4095 173.653 83.5382 167.41C84.5567 164.354 85.5751 161.248 86.4103 158.131C87.4559 156.302 88.3978 154.414 89.2315 152.479Z" fill="#263238"/>
<path d="M76.2667 177.535C64.4838 172.347 52.4392 167.774 40.1816 163.836C39.9983 163.775 39.8964 164.081 40.0696 164.152C51.8506 169.354 63.8954 173.936 76.1547 177.881C76.3482 177.952 76.501 177.616 76.2667 177.535Z" fill="#263238"/>
<path d="M88.7227 116.497C88.7227 118.992 96.5548 136.867 107.473 138.812C111.038 139.434 115.295 120.174 115.295 120.174L115.937 118.819L124.879 99.9162L101.963 76.8779C101.963 76.8779 88.7227 115.448 88.7227 116.497Z" fill="#AD6359"/>
<path d="M124.879 99.9148L115.937 118.808L115.295 120.173C115.295 120.173 114.521 123.656 113.36 127.618C99.1013 122.108 94.8848 109.519 93.6626 101.229C97.4208 90.0252 101.953 76.8867 101.953 76.8867L124.879 99.9148Z" fill="#263238"/>
<path d="M161.362 70.0742C156.636 114.633 129.422 116.843 119.808 115.815C111.089 114.878 81.5124 110.6 81.5939 65.7864C81.6754 20.9728 103.899 9.08703 123.953 10.1666C144.007 11.2462 166.129 25.5153 161.362 70.0742Z" fill="#AD6359"/>
<path d="M149.994 76.7657C154.903 77.5092 153.05 87.2867 148.507 86.5942C143.965 85.9016 145.869 76.1445 149.994 76.7657Z" fill="#263238"/>
<path d="M127.272 73.5156C122.384 72.5888 120.886 82.4274 125.409 83.2829C129.931 84.1385 131.357 74.2693 127.272 73.5156Z" fill="#263238"/>
<path d="M154.304 71.174C153.327 70.8363 152.369 70.4487 151.432 70.0129C150.365 69.7457 149.416 69.1334 148.733 68.2713C148.57 67.9589 148.516 67.6013 148.579 67.2547C148.641 66.9081 148.817 66.5922 149.079 66.3565C150.25 65.4093 151.727 65.6334 153.072 66.1325C154.443 66.5823 155.595 67.5311 156.3 68.7907C156.445 69.0862 156.501 69.4174 156.461 69.7441C156.422 70.0707 156.288 70.3789 156.077 70.6312C155.865 70.8834 155.585 71.069 155.271 71.1653C154.956 71.2617 154.62 71.2647 154.304 71.174Z" fill="#263238"/>
<path d="M124.075 67.2827C125.094 67.3438 126.112 67.2216 127.131 67.1808C128.225 67.2974 129.327 67.0505 130.267 66.4781C130.526 66.2402 130.699 65.9237 130.76 65.5776C130.821 65.2315 130.766 64.8751 130.604 64.5633C130.188 63.9949 129.628 63.5479 128.981 63.2686C128.335 62.9892 127.626 62.8877 126.927 62.9745C125.483 62.9255 124.073 63.4198 122.975 64.3596C122.736 64.5902 122.57 64.8857 122.497 65.2097C122.424 65.5337 122.447 65.8719 122.564 66.1828C122.681 66.4936 122.886 66.7634 123.155 66.9588C123.423 67.1543 123.743 67.2669 124.075 67.2827Z" fill="#263238"/>
<path d="M123.708 100.354C124.258 101.22 124.727 102.391 125.745 102.697C126.856 102.936 128.005 102.936 129.116 102.697C129.138 102.696 129.16 102.701 129.178 102.712C129.197 102.723 129.212 102.739 129.222 102.759C129.232 102.778 129.235 102.8 129.233 102.821C129.231 102.843 129.222 102.863 129.208 102.88C128.645 103.365 127.961 103.687 127.228 103.81C126.496 103.934 125.743 103.856 125.053 103.583C124.486 103.281 124.022 102.818 123.719 102.252C123.416 101.687 123.288 101.044 123.352 100.405C123.352 100.242 123.637 100.232 123.708 100.354Z" fill="#263238"/>
<path d="M138.231 91.7778C138.231 91.7778 138.038 96.3712 137.651 98.4896C137.651 98.6831 137.09 98.6933 136.357 98.6017C136.357 98.6017 136.306 98.6017 136.276 98.6017C134.4 98.6007 132.561 98.0844 130.958 97.1091C129.356 96.1338 128.053 94.737 127.191 93.0713C127.089 92.837 127.394 92.6741 127.568 92.837C129.981 95.3934 132.966 96.473 136.265 97.135C136.52 96.5749 136.357 89.1704 136.673 89.2825C138.038 89.7815 140.401 90.851 141.276 91.2482C141.47 88.264 141.602 79.7596 141.969 74.3311C141.969 73.995 142.519 73.9746 142.539 74.3311C143.159 80.6936 143.353 87.0903 143.12 93.4787C143.1 93.937 139.015 92.287 138.231 91.7778Z" fill="#263238"/>
<path d="M76.2257 68.0268C88.7123 72.661 99.8241 59.4002 100.425 46.2923C100.425 46.2923 133.017 60.7243 142.621 33.9686C143.924 38.3613 146.291 42.3645 149.512 45.623C152.733 48.8815 156.709 51.2944 161.086 52.6476L161.932 63.851C165.71 63.851 172.31 55.0615 166.067 44.8155C166.067 44.8155 169.458 31.0659 161.84 19.9949C159.826 16.857 156.948 14.3678 153.553 12.8265C150.158 11.2853 146.39 10.7577 142.702 11.3072C138.048 5.30784 131.244 1.35257 123.728 0.276912C110.763 -1.76007 102.34 8.1091 102.34 8.1091C102.34 8.1091 84.5977 6.39804 78.2423 17.4894C71.8869 28.5807 75.7062 38.3888 75.7062 38.3888C75.7062 38.3888 70.1249 41.8415 69.2796 52.6476C68.699 59.6039 72.4776 66.6315 76.2257 68.0268Z" fill="#263238"/>
<path d="M142.58 31.3301C142.186 33.6122 141.558 35.8477 140.706 38.0012C139.924 40.1591 138.877 42.2117 137.589 44.1121C135.089 47.8667 131.262 50.5372 126.875 51.5878C122.526 52.8609 117.902 51.9036 113.451 51.0684C111.272 50.3555 109.031 49.7953 106.882 48.9601C104.733 48.125 102.615 47.1676 100.425 46.3324C102.462 47.4935 104.499 48.5629 106.536 49.6934C108.573 50.824 110.895 51.4045 113.085 52.2804C117.617 53.4109 122.455 54.4192 127.231 53.1767C131.987 51.9756 136.08 48.9543 138.628 44.764C141.046 40.6861 142.405 36.0677 142.58 31.3301Z" fill="#263238"/>
<path d="M102.3 8.10854C97.9814 6.88375 93.4577 6.55791 89.0084 7.15115C84.3986 7.68394 80.1246 9.82634 76.9393 13.201C75.4756 14.9733 74.3032 16.9674 73.4663 19.1082C72.5634 21.2083 72.026 23.4473 71.8774 25.7284C71.5227 30.2726 72.8734 34.786 75.6662 38.3882C73.477 34.5934 72.5865 30.1876 73.1302 25.8404C73.6674 21.5804 75.4173 17.5644 78.1717 14.2704C79.5687 12.6845 81.2513 11.3751 83.1317 10.4103C85.0745 9.47608 87.1279 8.79164 89.2427 8.37334C93.5536 7.59502 97.9608 7.50565 102.3 8.10854Z" fill="#263238"/>
<path d="M142.702 11.3067C146.244 11.0847 149.799 11.4285 153.233 12.3252C156.586 13.1715 159.666 14.8655 162.176 17.2445C164.596 19.7235 166.348 22.7756 167.268 26.1156C168.223 29.5352 168.669 33.0768 168.592 36.6264C169.297 33.0483 169.262 29.364 168.49 25.7998C167.815 22.1087 166.016 18.7161 163.34 16.0857C160.664 13.4552 157.241 11.715 153.539 11.103C149.954 10.3873 146.257 10.4568 142.702 11.3067Z" fill="#263238"/>
<path d="M155.443 52.1888C152.098 49.8436 149.171 46.9513 146.786 43.6335C145.628 42.0028 144.699 40.2208 144.026 38.3374C143.36 36.3964 142.909 34.3881 142.682 32.3486C142.283 34.4463 142.328 36.6044 142.814 38.6836C143.289 40.8013 144.183 42.8028 145.442 44.5705C146.672 46.3311 148.17 47.8879 149.882 49.1843C151.557 50.4871 153.436 51.5024 155.443 52.1888Z" fill="#263238"/>
<path d="M108.634 79.0262C108.593 79.1111 108.536 79.1872 108.466 79.25C108.396 79.3129 108.314 79.3613 108.225 79.3925C108.136 79.4237 108.042 79.4371 107.948 79.4319C107.854 79.4267 107.762 79.4031 107.677 79.3623C107.592 79.3215 107.516 79.2644 107.453 79.1942C107.39 79.124 107.342 79.0421 107.311 78.9532C107.279 78.8643 107.266 78.7701 107.271 78.676C107.276 78.5819 107.3 78.4898 107.341 78.4049C107.423 78.2334 107.57 78.1016 107.75 78.0386C107.929 77.9755 108.127 77.9864 108.298 78.0688C108.47 78.1512 108.601 78.2983 108.664 78.4779C108.727 78.6574 108.717 78.8546 108.634 79.0262Z" fill="#AD6359"/>
<path d="M122.577 84.9329C122.508 85.0546 122.405 85.1536 122.281 85.2179C122.156 85.2822 122.016 85.3091 121.877 85.2953C121.738 85.2814 121.605 85.2275 121.496 85.14C121.387 85.0525 121.305 84.9352 121.262 84.8023C121.218 84.6694 121.213 84.5266 121.249 84.3913C121.285 84.256 121.359 84.1339 121.463 84.0399C121.566 83.9459 121.695 83.884 121.833 83.8618C121.971 83.8395 122.113 83.8578 122.241 83.9144C122.332 83.9565 122.414 84.0169 122.481 84.092C122.548 84.167 122.599 84.255 122.63 84.3506C122.662 84.4461 122.673 84.5471 122.664 84.6473C122.655 84.7475 122.625 84.8447 122.577 84.9329Z" fill="#AD6359"/>
<path d="M115.479 87.4084C115.438 87.5008 115.378 87.5836 115.303 87.6515C115.228 87.7194 115.14 87.7708 115.044 87.8025C114.948 87.8342 114.846 87.8454 114.746 87.8354C114.645 87.8254 114.548 87.7944 114.46 87.7445C114.376 87.6989 114.302 87.6369 114.242 87.562C114.183 87.4872 114.139 87.4011 114.113 87.3089C114.087 87.2167 114.081 87.1203 114.093 87.0254C114.105 86.9305 114.137 86.8391 114.185 86.7566C114.226 86.6709 114.284 86.5942 114.355 86.5309C114.426 86.4676 114.509 86.4189 114.599 86.3877C114.689 86.3565 114.784 86.3433 114.879 86.3489C114.974 86.3545 115.067 86.3789 115.153 86.4205C115.241 86.4615 115.32 86.5203 115.385 86.5931C115.45 86.6659 115.499 86.7513 115.53 86.8439C115.56 86.9364 115.571 87.0343 115.563 87.1314C115.554 87.2285 115.525 87.3228 115.479 87.4084Z" fill="#AD6359"/>
<path d="M111.588 73.8215C111.546 73.9072 111.489 73.9839 111.418 74.0472C111.347 74.1105 111.264 74.1592 111.174 74.1904C111.084 74.2216 110.989 74.2348 110.894 74.2292C110.799 74.2235 110.706 74.1992 110.62 74.1576C110.492 74.0951 110.385 73.9959 110.312 73.8726C110.24 73.7492 110.206 73.6072 110.215 73.4646C110.223 73.3219 110.274 73.1849 110.36 73.0709C110.446 72.957 110.564 72.8711 110.699 72.8242C110.834 72.7773 110.98 72.7715 111.118 72.8074C111.257 72.8434 111.381 72.9195 111.476 73.0263C111.571 73.133 111.633 73.2655 111.653 73.407C111.672 73.5485 111.65 73.6928 111.588 73.8215Z" fill="#AD6359"/>
<path d="M116.222 80.573C116.161 80.703 116.064 80.8122 115.941 80.8867C115.819 80.9612 115.677 80.9977 115.534 80.9915C115.391 80.9853 115.253 80.9366 115.137 80.8518C115.022 80.767 114.934 80.6497 114.885 80.515C114.837 80.3802 114.829 80.234 114.864 80.095C114.898 79.9559 114.973 79.8302 115.079 79.7338C115.185 79.6375 115.317 79.5748 115.459 79.5537C115.601 79.5327 115.746 79.5543 115.875 79.6156C115.961 79.655 116.039 79.7112 116.103 79.7809C116.167 79.8507 116.217 79.9325 116.249 80.0216C116.282 80.1108 116.296 80.2055 116.291 80.3001C116.286 80.3948 116.263 80.4876 116.222 80.573Z" fill="#AD6359"/>
<path d="M154.314 87.2451C154.23 87.418 154.081 87.5505 153.9 87.6135C153.718 87.6766 153.519 87.6649 153.347 87.5812C153.174 87.4974 153.041 87.3485 152.978 87.167C152.915 86.9856 152.927 86.7865 153.01 86.6136C153.094 86.4407 153.243 86.3082 153.425 86.2452C153.606 86.1821 153.805 86.1938 153.978 86.2775C154.151 86.3613 154.283 86.5102 154.346 86.6917C154.409 86.8732 154.398 87.0722 154.314 87.2451Z" fill="#AD6359"/>
<path d="M147.448 88.5077C147.408 88.5931 147.351 88.6696 147.281 88.7328C147.211 88.796 147.129 88.8446 147.04 88.8759C146.951 88.9071 146.857 88.9204 146.762 88.9149C146.668 88.9094 146.576 88.8853 146.491 88.8438C146.399 88.803 146.316 88.7431 146.248 88.6683C146.18 88.5934 146.129 88.5051 146.097 88.4092C146.065 88.3132 146.054 88.2117 146.064 88.1111C146.074 88.0106 146.105 87.9132 146.155 87.8254C146.195 87.74 146.252 87.6635 146.322 87.6003C146.392 87.5371 146.474 87.4885 146.563 87.4572C146.652 87.426 146.747 87.4127 146.841 87.4182C146.935 87.4237 147.027 87.4478 147.112 87.4893C147.204 87.5314 147.285 87.5918 147.352 87.6669C147.419 87.7419 147.47 87.8299 147.502 87.9254C147.533 88.021 147.545 88.122 147.536 88.2221C147.526 88.3223 147.497 88.4195 147.448 88.5077Z" fill="#AD6359"/>
<path d="M146.695 93.4167C146.609 93.5879 146.46 93.7189 146.28 93.7817C146.099 93.8445 145.901 93.8341 145.727 93.7528C145.602 93.6898 145.499 93.5913 145.429 93.4697C145.36 93.3481 145.328 93.2087 145.337 93.069C145.346 92.9292 145.397 92.7954 145.481 92.684C145.566 92.5726 145.682 92.4887 145.814 92.4428C145.947 92.3968 146.09 92.3909 146.225 92.4256C146.361 92.4604 146.483 92.5343 146.577 92.6382C146.671 92.742 146.732 92.8713 146.753 93.0097C146.774 93.1482 146.754 93.2898 146.695 93.4167Z" fill="#AD6359"/>
<path d="M152.551 92.5619C152.489 92.6904 152.389 92.7975 152.266 92.8697C152.143 92.9419 152.001 92.9759 151.858 92.9675C151.715 92.959 151.578 92.9085 151.465 92.8222C151.351 92.736 151.265 92.6179 151.218 92.4829C151.171 92.3479 151.165 92.202 151.201 92.0637C151.237 91.9253 151.313 91.8008 151.42 91.7057C151.527 91.6106 151.659 91.5493 151.801 91.5295C151.942 91.5096 152.086 91.5322 152.215 91.5943C152.386 91.6798 152.517 91.8289 152.58 92.0097C152.643 92.1904 152.632 92.3886 152.551 92.5619Z" fill="#AD6359"/>
<path d="M115.998 89.5059C113.194 88.6544 110.686 87.0329 108.758 84.826C106.83 82.6191 105.56 79.9153 105.093 77.0223C104.626 74.1294 104.98 71.1634 106.116 68.4619C107.251 65.7604 109.122 63.4318 111.516 61.7411C113.909 60.0504 116.729 59.0656 119.655 58.8985C122.581 58.7315 125.494 59.389 128.065 60.7962C130.635 62.2035 132.759 64.304 134.194 66.8587C135.63 69.4134 136.32 72.3198 136.185 75.2471C135.989 79.3811 134.166 83.2697 131.112 86.0635C128.059 88.8573 124.024 90.3292 119.889 90.1578C118.57 90.1033 117.263 89.8843 115.998 89.5059ZM124.493 61.5586C123.415 61.2279 122.299 61.0362 121.172 60.9882C117.727 60.8312 114.351 61.9936 111.732 64.2385C109.113 66.4835 107.449 69.6422 107.078 73.0714C106.707 76.5006 107.657 79.9423 109.734 82.6956C111.812 85.4489 114.861 87.3067 118.26 87.8907C121.66 88.4746 125.154 87.7408 128.031 85.8386C130.908 83.9365 132.952 81.009 133.747 77.6526C134.541 74.2961 134.026 70.763 132.307 67.7728C130.588 64.7827 127.793 62.5604 124.493 61.5586Z" fill="#455A64"/>
<path d="M150.087 95.2808C144.353 93.5391 140.92 86.1144 142.387 78.0581C143.012 74.2039 144.828 70.6422 147.581 67.8732C148.723 66.6577 150.142 65.7359 151.716 65.1862C153.291 64.6365 154.975 64.4752 156.625 64.7159C159.762 65.2761 162.37 67.4556 163.999 70.8268C165.614 74.3781 166.073 78.3465 165.313 82.1728C163.785 90.667 157.399 96.6557 151.054 95.515C150.727 95.4573 150.404 95.379 150.087 95.2808ZM157.023 66.9668C156.773 66.8853 156.518 66.824 156.259 66.7834C154.933 66.6033 153.584 66.7453 152.325 67.1974C151.067 67.6495 149.935 68.3984 149.027 69.3806C146.596 71.8448 144.993 75.0065 144.444 78.4248C143.12 85.7885 146.247 92.5308 151.451 93.4678C156.656 94.4049 161.932 89.1698 163.256 81.8163C163.939 78.4221 163.54 74.8989 162.115 71.7435C161.647 70.636 160.951 69.6389 160.074 68.8162C159.197 67.9935 158.158 67.3635 157.023 66.9668Z" fill="#455A64"/>
<path d="M135.501 76.9577L134.625 75.4198C136.887 74.1263 141.847 72.7208 144.403 76.6827L142.926 77.6401C140.665 74.0855 135.705 76.8355 135.501 76.9577Z" fill="#455A64"/>
<path d="M72.2225 69.0353L70.8271 68.0169C71.3262 67.365 75.8381 61.6513 79.8306 61.7124C83.5583 61.7939 106.434 68.1594 107.401 68.4344L106.933 70.1251C100.374 68.2918 82.6824 63.5253 79.8001 63.4846C77.1622 63.3827 73.4447 67.4669 72.2225 69.0353Z" fill="#455A64"/>
<path d="M89.6292 70.786C89.6292 70.786 82.7035 55.1929 75.8083 57.403C68.9132 59.6132 72.2538 80.92 79.0369 85.0652C79.8691 85.6578 80.8125 86.076 81.8104 86.2947C82.8083 86.5133 83.8401 86.528 84.8438 86.3377C85.8475 86.1474 86.8023 85.7562 87.651 85.1875C88.4996 84.6187 89.2245 83.8843 89.782 83.0282L89.6292 70.786Z" fill="#AD6359"/>
<path d="M76.9189 63.4941C76.7967 63.4941 76.7458 63.6164 76.8374 63.6775C81.5632 66.7329 83.3354 72.0291 84.2724 77.3354C83.1113 75.1355 81.2169 73.6892 78.3448 75.0133C78.192 75.0845 78.2837 75.3188 78.4263 75.3188C79.3839 75.2059 80.3529 75.3932 81.1994 75.8548C82.046 76.3164 82.7283 77.0295 83.1521 77.8956C83.8558 79.3462 84.3988 80.8694 84.7715 82.438C84.9242 82.9371 85.79 82.8556 85.7288 82.2955C85.7337 82.2514 85.7337 82.2071 85.7288 82.1631C87.114 75.6549 83.8039 65.5108 76.9189 63.4941Z" fill="#263238"/>
<path d="M277.214 263.719H154.313V269.229H277.214V263.719Z" fill="#455A64"/>
<path d="M216.166 263.719H154.313V269.229H216.166V263.719Z" fill="#A6A6A6"/>
<path d="M214.73 269.219H334.504L351.432 187.872H231.657L214.73 269.219Z" fill="#C7C7C7"/>
<path d="M273.792 230.363C273.659 231.371 273.744 232.395 274.043 233.367C274.342 234.338 274.847 235.234 275.524 235.992C276.201 236.75 277.034 237.353 277.965 237.76C278.897 238.167 279.905 238.367 280.922 238.348C283.106 238.3 285.201 237.467 286.821 236C288.441 234.534 289.478 232.532 289.742 230.363C289.875 229.356 289.79 228.331 289.491 227.359C289.192 226.388 288.687 225.492 288.01 224.734C287.333 223.976 286.5 223.373 285.569 222.966C284.637 222.56 283.629 222.359 282.612 222.378C280.428 222.428 278.335 223.262 276.716 224.728C275.096 226.195 274.058 228.195 273.792 230.363Z" fill="white"/>
</svg>
